<svg width="14" height="14" viewBox="0 0 14 14" fill="none" xmlns="http://www.w3.org/2000/svg">
<path d="M2.48268 14C1.81897 14 1.19531 13.7188 0.726256 13.2091C-0.242085 12.1563 -0.242085 10.4433 0.726256 9.39071L8.40489 1.04342C9.0235 0.370257 9.84686 0 10.7222 0C11.5978 0 12.4211 0.370257 13.0397 1.04342C13.659 1.7164 14 2.61089 14 3.56243C14 4.51414 13.6594 5.4086 13.0403 6.08118L6.99551 12.6514C6.81403 12.8486 6.52014 12.8486 6.33874 12.6514C6.15726 12.4541 6.15726 12.1347 6.33874 11.9374L12.3833 5.36716C12.827 4.88496 13.071 4.24395 13.071 3.56243C13.071 2.88103 12.8265 2.23962 12.3829 1.75735C11.9393 1.27515 11.3496 1.00978 10.7222 1.00978C10.095 1.00978 9.50534 1.27515 9.06166 1.75735L1.38311 10.1046C0.777136 10.7639 0.777136 11.8359 1.38311 12.495C1.97092 13.1331 2.99433 13.1331 3.58211 12.495L8.73818 6.88982C8.87838 6.73742 8.9587 6.52646 8.9587 6.31142C8.9587 6.09338 8.88026 5.88784 8.73778 5.73299C8.44478 5.41448 7.96712 5.41353 7.67412 5.73299L4.15275 9.56125C3.97138 9.75856 3.67735 9.75856 3.49598 9.56125C3.3145 9.36407 3.3145 9.04447 3.49598 8.84735L7.01723 5.0191C7.67224 4.30712 8.7387 4.30712 9.39458 5.0191C9.71259 5.36469 9.88764 5.8238 9.88764 6.31145C9.88764 6.79263 9.70803 7.26354 9.39507 7.60374L4.23899 13.2091C3.76994 13.7188 3.14626 14 2.48268 14Z" fill="#00344E"/>
</svg>
