<svg width="48" height="48" viewBox="0 0 48 48" fill="none" xmlns="http://www.w3.org/2000/svg">
<path d="M23.9221 38.7129C15.7519 38.7129 9.10669 32.0677 9.10669 23.8974C9.10669 15.7272 15.7519 9.08197 23.9221 9.08197C32.0924 9.08197 38.7376 15.7272 38.7376 23.8974C38.7376 32.0677 32.0924 38.7129 23.9221 38.7129ZM23.9221 10.5324C16.5517 10.5324 10.5572 16.527 10.5572 23.8974C10.5572 31.2679 16.5517 37.2624 23.9221 37.2624C31.2926 37.2624 37.2871 31.2679 37.2871 23.8974C37.2871 16.527 31.2926 10.5324 23.9221 10.5324Z" fill="#00344E"/>
<path d="M31.0772 17.2025C30.7933 16.9186 30.3354 16.9186 30.0515 17.2025L24.1523 23.1018L18.1163 17.0637C17.8324 16.7798 17.3745 16.7798 17.0906 17.0637C16.8067 17.3476 16.8067 17.8055 17.0906 18.0894L23.1287 24.1274L17.3102 29.9459C17.0264 30.2297 17.0264 30.6877 17.3102 30.9716C17.4511 31.1125 17.6376 31.185 17.8241 31.185C18.0106 31.185 18.195 31.1145 18.338 30.9716L24.1564 25.1531L29.836 30.8327C29.9769 30.9736 30.1634 31.0462 30.3499 31.0462C30.5364 31.0462 30.7208 30.9757 30.8638 30.8327C31.1477 30.5488 31.1477 30.0909 30.8638 29.807L25.1842 24.1254L31.0834 18.2261C31.3611 17.9443 31.3611 17.4864 31.0772 17.2025Z" fill="#00344E"/>
</svg>
