<svg width="16" height="14" viewBox="0 0 16 14" fill="none" xmlns="http://www.w3.org/2000/svg">
<path d="M5.33325 13.8799C5.14659 13.8799 4.95324 13.8333 4.77991 13.74C4.39991 13.54 4.16659 13.1399 4.16659 12.7133V11.7667C2.15325 11.56 0.833252 10.0799 0.833252 7.95994V3.95998C0.833252 1.66665 2.37325 0.126648 4.66659 0.126648H11.3333C13.6266 0.126648 15.1666 1.66665 15.1666 3.95998V7.95994C15.1666 10.2533 13.6266 11.7933 11.3333 11.7933H8.81991L5.9799 13.6867C5.78657 13.8133 5.55992 13.8799 5.33325 13.8799ZM4.66659 1.11997C2.94659 1.11997 1.83325 2.23331 1.83325 3.95331V7.95335C1.83325 9.67335 2.94659 10.7867 4.66659 10.7867C4.93992 10.7867 5.16659 11.0133 5.16659 11.2867V12.7067C5.16659 12.7934 5.21992 12.8333 5.25326 12.8533C5.28659 12.8733 5.35326 12.8933 5.4266 12.8467L8.39327 10.8734C8.47327 10.82 8.57326 10.7867 8.67326 10.7867H11.3399C13.0599 10.7867 14.1733 9.67335 14.1733 7.95335V3.95331C14.1733 2.23331 13.0599 1.11997 11.3399 1.11997H4.66659Z" fill="#737780"/>
<path d="M7.99972 7.07336C7.72638 7.07336 7.49972 6.8467 7.49972 6.57336V6.43339C7.49972 5.66006 8.06637 5.28005 8.2797 5.13338C8.52637 4.96672 8.60636 4.85339 8.60636 4.68005C8.60636 4.34672 8.33305 4.07336 7.99972 4.07336C7.66638 4.07336 7.39307 4.34672 7.39307 4.68005C7.39307 4.95339 7.1664 5.18005 6.89307 5.18005C6.61973 5.18005 6.39307 4.95339 6.39307 4.68005C6.39307 3.79339 7.11305 3.07336 7.99972 3.07336C8.88638 3.07336 9.60636 3.79339 9.60636 4.68005C9.60636 5.44005 9.04639 5.82004 8.83972 5.96004C8.57972 6.13338 8.49972 6.24672 8.49972 6.43339V6.57336C8.49972 6.85336 8.27305 7.07336 7.99972 7.07336Z" fill="#737780"/>
<path d="M8 8.73334C7.72 8.73334 7.5 8.50667 7.5 8.23334C7.5 7.96 7.72667 7.73334 8 7.73334C8.27333 7.73334 8.5 7.96 8.5 8.23334C8.5 8.50667 8.28 8.73334 8 8.73334Z" fill="#737780"/>
</svg>
