<svg width="24" height="24" viewBox="0 0 24 24" fill="none" xmlns="http://www.w3.org/2000/svg">
<path fill-rule="evenodd" clip-rule="evenodd" d="M12 8.25C12.4142 8.25 12.75 8.58579 12.75 9V14C12.75 14.4142 12.4142 14.75 12 14.75C11.5858 14.75 11.25 14.4142 11.25 14V9C11.25 8.58579 11.5858 8.25 12 8.25Z" fill="#00344E"/>
<path fill-rule="evenodd" clip-rule="evenodd" d="M12 3.3425C11.2002 3.3425 10.2323 3.89139 9.41591 5.36371L3.35593 16.2637C2.59543 17.6353 2.62795 18.7172 3.03556 19.4116C3.44274 20.1053 4.36976 20.66 5.94 20.66H12C12.0418 20.66 12.0828 20.6634 12.1228 20.67H18.06C19.6245 20.67 20.5524 20.1157 20.9611 19.421C21.3698 18.726 21.404 17.6443 20.6441 16.2737L14.5844 5.36434C13.768 3.89202 12.7998 3.3425 12 3.3425ZM11.8772 22.16H5.94C4.04024 22.16 2.50726 21.4747 1.74195 20.1709C0.977056 18.8678 1.12457 17.1947 2.04408 15.5363L8.1041 4.63629C8.10422 4.63607 8.10397 4.63651 8.1041 4.63629C9.06765 2.899 10.45 1.8425 12 1.8425C13.55 1.8425 14.932 2.89835 15.8956 4.63566L18.8356 9.92566L21.9557 15.546C22.8758 17.2054 23.0202 18.879 22.254 20.1815C21.4876 21.4843 19.9555 22.17 18.06 22.17H12C11.9582 22.17 11.9172 22.1666 11.8772 22.16Z" fill="#00344E"/>
<path fill-rule="evenodd" clip-rule="evenodd" d="M10.9945 17C10.9945 16.4477 11.4422 16 11.9945 16H12.0035C12.5558 16 13.0035 16.4477 13.0035 17C13.0035 17.5523 12.5558 18 12.0035 18H11.9945C11.4422 18 10.9945 17.5523 10.9945 17Z" fill="#00344E"/>
</svg>
